<?xml version="1.0" encoding="utf-8"?>
<!-- Generator: Adobe Illustrator 18.0.0, SVG Export Plug-In . SVG Version: 6.00 Build 0)  -->
<!DOCTYPE svg PUBLIC "-//W3C//DTD SVG 1.1//EN" "http://www.w3.org/Graphics/SVG/1.1/DTD/svg11.dtd">
<svg version="1.1" id="Vrstva_1" xmlns="http://www.w3.org/2000/svg" xmlns:xlink="http://www.w3.org/1999/xlink" x="0px" y="0px"
	 viewBox="0 0 150 150" enable-background="new 0 0 150 150" xml:space="preserve">
<g>
	<polygon fill="#2062AF" points="118.6,137.2 75.5,148.9 32.3,137.2 22.3,29.3 128.6,29.3 	"/>
	<polygon fill="#3C9CD7" points="75.5,38.1 75.5,139.6 75.6,139.6 110.5,130.2 118.6,38.1 	"/>
	<g>
		<polygon points="51,13.5 51,7 60.3,7 60.3,0 43.9,0 43.9,19.9 60.3,19.9 60.3,13.5 		"/>
		<path d="M77.2,7h6.6V0H67.3c0,0,0,3.5,0,7c2.2,2.2,3.3,3.2,6.5,6.4c-1.9,0-6.5,0-6.5,0v6.4h16.4v-6.4L77.2,7z"/>
		<path d="M100.4,7h6.6V0H90.6c0,0,0,3.5,0,7c2.2,2.2,3.3,3.2,6.5,6.4c-1.9,0-6.5,0-6.5,0v6.4H107v-6.4L100.4,7z"/>
	</g>
	<g>
		<polygon fill="#FFFFFF" points="75.4,65 44.5,77.9 45.6,90.6 75.4,77.9 107.2,64.3 108.5,51.3 		"/>
		
			<linearGradient id="SVGID_1_" gradientUnits="userSpaceOnUse" x1="59.975" y1="61.3523" x2="59.975" y2="86.9621" gradientTransform="matrix(1 0 0 -1 0 152)">
			<stop  offset="0.3865" style="stop-color:#D1D3D4;stop-opacity:0"/>
			<stop  offset="1" style="stop-color:#D1D3D4"/>
		</linearGradient>
		<polygon fill="url(#SVGID_1_)" points="44.5,77.9 45.6,90.6 75.4,77.9 75.4,65 		"/>
		
			<linearGradient id="SVGID_2_" gradientUnits="userSpaceOnUse" x1="91.9728" y1="74.1255" x2="91.9728" y2="100.7455" gradientTransform="matrix(1 0 0 -1 0 152)">
			<stop  offset="0.3865" style="stop-color:#D1D3D4;stop-opacity:0"/>
			<stop  offset="1" style="stop-color:#D1D3D4"/>
		</linearGradient>
		<polygon fill="url(#SVGID_2_)" points="108.5,51.3 75.4,65 75.4,77.9 107.2,64.3 		"/>
		
			<linearGradient id="SVGID_3_" gradientUnits="userSpaceOnUse" x1="44.5729" y1="49.93" x2="106.0807" y2="49.93" gradientTransform="matrix(1 0 0 -1 0 152)">
			<stop  offset="0" style="stop-color:#E8E7E5"/>
			<stop  offset="1" style="stop-color:#FFFFFF"/>
		</linearGradient>
		<polygon fill="url(#SVGID_3_)" points="44.6,77.9 45.6,90.6 91.4,90.8 90.4,107.8 75.3,112 60.8,108.4 59.9,97.8 46.5,97.8 
			48.2,118.2 75.5,126.2 102.6,118.3 106.1,77.9 		"/>
		<g opacity="5.000000e-02">
			<polygon points="75.4,77.9 44.5,77.9 45.6,90.6 75.4,90.7 			"/>
			<polygon points="75.4,112 75.3,112 60.8,108.4 59.9,97.8 46.4,97.8 48.2,118.2 75.4,126.2 			"/>
		</g>
		
			<linearGradient id="SVGID_4_" gradientUnits="userSpaceOnUse" x1="41.7429" y1="94.2287" x2="108.5208" y2="94.2287" gradientTransform="matrix(1 0 0 -1 0 152)">
			<stop  offset="0" style="stop-color:#E8E7E5"/>
			<stop  offset="1" style="stop-color:#FFFFFF"/>
		</linearGradient>
		<polygon fill="url(#SVGID_4_)" points="41.7,51.3 108.5,51.3 107.2,64.3 43.4,64.3 		"/>
		<polygon opacity="5.000000e-02" enable-background="new    " points="75.4,51.3 41.7,51.3 43.4,64.3 75.4,64.3 		"/>
	</g>
</g>
</svg>
