<?xml version="1.0" encoding="utf-8"?>
<!-- Generator: Adobe Illustrator 18.0.0, SVG Export Plug-In . SVG Version: 6.00 Build 0)  -->
<!DOCTYPE svg PUBLIC "-//W3C//DTD SVG 1.1//EN" "http://www.w3.org/Graphics/SVG/1.1/DTD/svg11.dtd">
<svg version="1.1" id="Vrstva_1" xmlns="http://www.w3.org/2000/svg" xmlns:xlink="http://www.w3.org/1999/xlink" x="0px" y="0px"
	 viewBox="0 0 150 150" enable-background="new 0 0 150 150" xml:space="preserve">
<g>
	<path fill="#F05133" d="M146.2,68.3L81.7,3.8c-3.7-3.7-9.7-3.7-13.5,0L54.8,17.2l17,17c4-1.3,8.5-0.4,11.6,2.7
		c3.2,3.2,4.1,7.7,2.7,11.7L102.5,65c4-1.4,8.5-0.5,11.7,2.7c4.4,4.4,4.4,11.6,0,16c-4.4,4.4-11.6,4.4-16,0
		c-3.3-3.3-4.2-8.2-2.5-12.3L80.4,56.1v40.2c1.1,0.5,2.1,1.2,3,2.1c4.4,4.4,4.4,11.6,0,16c-4.4,4.4-11.6,4.4-16,0
		c-4.4-4.4-4.4-11.6,0-16c1.1-1.1,2.4-1.9,3.7-2.5V55.4c-1.4-0.6-2.6-1.4-3.7-2.5c-3.4-3.3-4.2-8.3-2.4-12.4L48.2,23.8L3.9,68
		c-3.7,3.7-3.7,9.7,0,13.5L68.5,146c3.7,3.7,9.7,3.7,13.5,0l64.2-64.2C149.9,78.1,149.9,72.1,146.2,68.3z"/>
</g>
</svg>
