<?xml version="1.0" encoding="utf-8"?>
<!-- Generator: Adobe Illustrator 18.0.0, SVG Export Plug-In . SVG Version: 6.00 Build 0)  -->
<!DOCTYPE svg PUBLIC "-//W3C//DTD SVG 1.1//EN" "http://www.w3.org/Graphics/SVG/1.1/DTD/svg11.dtd">
<svg version="1.1" id="Vrstva_1" xmlns="http://www.w3.org/2000/svg" xmlns:xlink="http://www.w3.org/1999/xlink" x="0px" y="0px"
	 viewBox="0 0 150 150" enable-background="new 0 0 150 150" xml:space="preserve">
<polygon fill="#E44D26" points="31.7,136.3 22.2,29.1 127.2,29.1 117.6,136.3 74.6,148.2 "/>
<polygon fill="#F16529" points="74.7,139.1 109.4,129.5 117.6,37.9 74.7,37.9 "/>
<polygon fill="#EBEBEB" points="74.7,77.7 57.3,77.7 56.1,64.2 74.7,64.2 74.7,51 74.6,51 41.7,51 42,54.6 45.3,90.8 74.7,90.8 "/>
<polygon fill="#EBEBEB" points="74.7,111.8 74.6,111.8 60,107.9 59,97.4 51.9,97.4 45.8,97.4 47.7,118 74.6,125.5 74.7,125.5 "/>
<path d="M31.9,0h6.7v6.6h6.1V0h6.7v20h-6.7v-6.7h-6.1V20h-6.7L31.9,0L31.9,0z"/>
<path d="M60.2,6.6h-5.9V0h18.4v6.6h-5.9V20h-6.7L60.2,6.6L60.2,6.6z"/>
<path d="M75.7,0h7l4.3,7l4.3-7h7v20h-6.7v-9.9l-4.6,7.1h-0.1l-4.6-7.1V20h-6.5V0z"/>
<path d="M101.5,0h6.7v13.4h9.4V20h-16.1V0z"/>
<polygon fill="#FFFFFF" points="74.6,77.7 74.6,90.8 90.8,90.8 89.3,107.8 74.6,111.8 74.6,125.5 101.6,118 101.8,115.8 104.9,81.2 
	105.2,77.7 101.6,77.7 "/>
<polygon fill="#FFFFFF" points="74.6,51 74.6,59.2 74.6,64.2 74.6,64.2 106.3,64.2 106.3,64.2 106.4,64.2 106.6,61.2 107.2,54.6 
	107.6,51 "/>
</svg>
