<?xml version="1.0" encoding="utf-8"?>
<!-- Generator: Adobe Illustrator 18.0.0, SVG Export Plug-In . SVG Version: 6.00 Build 0)  -->
<!DOCTYPE svg PUBLIC "-//W3C//DTD SVG 1.1//EN" "http://www.w3.org/Graphics/SVG/1.1/DTD/svg11.dtd">
<svg version="1.1" id="Vrstva_1" xmlns="http://www.w3.org/2000/svg" xmlns:xlink="http://www.w3.org/1999/xlink" x="0px" y="0px"
	 viewBox="0 0 150 150" enable-background="new 0 0 150 150" xml:space="preserve">
<g id="Layer_1">
	<g id="code_x5F_html5">
	</g>
	<g>
		<polygon fill="#ECA40C" points="126.9,29.1 74.2,29.1 74.2,29.1 21.4,29.1 31.2,136.5 74.2,148.7 74.2,148.7 74.2,148.7 
			74.2,148.7 74.2,148.7 117.1,136.5 		"/>
		<polygon fill="#F5C200" points="74.2,37.9 74.2,139.5 74.2,139.5 109,129.7 117.4,37.9 		"/>
		<polygon fill="#FFFFFF" points="101.9,51 48.4,51 44.7,91.3 44.7,91 90.1,91 88.7,108 74.2,112.1 59.5,107.9 58.6,97.7 45.3,97.7 
			47.2,118.1 74.2,125.9 101.2,118.1 104.9,77.9 56.8,77.9 57.3,64.4 90.8,64.4 91.3,72.1 104.8,72.1 		"/>
		<g>
			<path fill="#EBEBEB" d="M74.2,51H48.4l-3.7,40.3l0.1-0.3h29.5V77.9H58.6l0.7-13.5h14.9V51z M58.6,97.7H45.3l2,20.6l27,7.6v-13.8
				l-14.7-4.2L58.6,97.7z"/>
		</g>
		<g>
			<polygon points="63.9,13.2 54.6,13.2 54.6,20.1 63.9,20.1 69,20.1 70.7,20.1 70.7,0 63.9,0 			"/>
			<path d="M93.9,0.1H77.5c0,0,0,3.5,0,7.1c2.2,2.2,3.3,3.3,6.6,6.4c-1.8,0-6.6,0-6.6,0v6.4h16.4v-6.4l-6.6-6.4h6.6V0.1z"/>
		</g>
	</g>
</g>
<g id="Layer_2">
</g>
</svg>
