<?xml version="1.0" encoding="utf-8"?>
<!-- Generator: Adobe Illustrator 18.0.0, SVG Export Plug-In . SVG Version: 6.00 Build 0)  -->
<!DOCTYPE svg PUBLIC "-//W3C//DTD SVG 1.1//EN" "http://www.w3.org/Graphics/SVG/1.1/DTD/svg11.dtd">
<svg version="1.1" id="Vrstva_1" xmlns="http://www.w3.org/2000/svg" xmlns:xlink="http://www.w3.org/1999/xlink" x="0px" y="0px"
	 viewBox="0 0 150 150" enable-background="new 0 0 150 150" xml:space="preserve">
<g id="Background">
	<rect x="1.6" fill-opacity="0" width="146.4" height="131"/>
</g>
<g id="Layer_1">
	<path fill="#00D8FF" d="M87.5,65.4c0,7.1-5.8,12.9-12.9,12.9c-7.1,0-12.9-5.8-12.9-12.9s5.8-12.9,12.9-12.9
		C81.8,52.5,87.5,58.3,87.5,65.4z"/>
	<path fill-opacity="0" stroke="#00D8FF" stroke-width="6.1658" stroke-miterlimit="10" d="M74.7,39.2c17.3,0,33.4,2.5,45.5,6.7
		c14.6,5,23.6,12.6,23.6,19.5c0,7.2-9.5,15.3-25.2,20.5c-11.9,3.9-27.5,6-43.9,6c-16.8,0-32.8-1.9-44.8-6
		C14.7,80.7,5.6,72.5,5.6,65.4c0-6.8,8.6-14.4,23-19.4C40.7,41.7,57.2,39.2,74.7,39.2z"/>
	<path fill-opacity="0" stroke="#00D8FF" stroke-width="6.1658" stroke-miterlimit="10" d="M51.8,52.4c8.6-15,18.8-27.7,28.5-36.1
		C92,6.2,103.1,2.2,109.1,5.6c6.2,3.6,8.5,15.9,5.2,32.1c-2.5,12.2-8.5,26.8-16.7,41c-8.4,14.6-18,27.4-27.6,35.8
		C57.8,125,46.1,128.8,40,125.3c-5.9-3.4-8.2-14.6-5.4-29.6C37.1,83.1,43.1,67.5,51.8,52.4z"/>
	<path fill-opacity="0" stroke="#00D8FF" stroke-width="6.1658" stroke-miterlimit="10" d="M51.9,78.7c-8.7-15-14.6-30.1-17-42.7
		c-3-15.2-0.9-26.7,5.1-30.2c6.2-3.6,18,0.6,30.4,11.5c9.3,8.3,18.9,20.8,27.2,35c8.4,14.6,14.8,29.3,17.2,41.8
		c3.1,15.7,0.6,27.7-5.5,31.3c-5.9,3.4-16.8-0.2-28.3-10.1C71.1,106.8,60.6,93.9,51.9,78.7z"/>
</g>
</svg>
